<svg xmlns="http://www.w3.org/2000/svg" viewBox="0 0 1200 800">
  <defs>
    <linearGradient id="g" x1="0" x2="0" y1="0" y2="1">
      <stop offset="0%" stop-color="#f3f4f6"/>
      <stop offset="100%" stop-color="#e5e7eb"/>
    </linearGradient>
  </defs>
  <rect width="100%" height="100%" fill="#fff"/>
  <g transform="translate(0,60)">
    <path d="M0 600 C200 350, 400 400, 600 200 C800 20, 1000 120, 1200 300 L1200 800 L0 800 Z" fill="#d1d5db"/>
    <path d="M0 700 C220 470, 420 520, 620 350 C820 200, 1020 260, 1200 420 L1200 800 L0 800 Z" fill="#9ca3af" opacity="0.85"/>
    <path d="M0 760 C260 560, 460 600, 700 440 C900 320, 1100 380, 1200 520 L1200 800 L0 800 Z" fill="#6b7280" opacity="0.6"/>
  </g>
</svg>
